<?xml version="1.0" encoding="UTF-8" standalone="no"?>
<svg
   version="1.1"
   width="1500"
   height="1687"
   viewBox="0 0 1500 1687"
   id="svg12"
   sodipodi:docname="logo-no-background.svg"
   inkscape:export-filename="logo-no-background.svg"
   inkscape:export-xdpi="96"
   inkscape:export-ydpi="96"
   inkscape:version="1.3.1 (9b9bdc1480, 2023-11-25, custom)"
   xmlns:inkscape="http://www.inkscape.org/namespaces/inkscape"
   xmlns:sodipodi="http://sodipodi.sourceforge.net/DTD/sodipodi-0.dtd"
   xmlns="http://www.w3.org/2000/svg"
   xmlns:svg="http://www.w3.org/2000/svg">
  <defs
     id="defs12" />
  <sodipodi:namedview
     id="namedview12"
     pagecolor="#ffffff"
     bordercolor="#000000"
     borderopacity="0.25"
     inkscape:showpageshadow="2"
     inkscape:pageopacity="0.0"
     inkscape:pagecheckerboard="0"
     inkscape:deskcolor="#d1d1d1"
     inkscape:zoom="0.48369887"
     inkscape:cx="750.46691"
     inkscape:cy="843.5"
     inkscape:window-width="1920"
     inkscape:window-height="1016"
     inkscape:window-x="0"
     inkscape:window-y="27"
     inkscape:window-maximized="1"
     inkscape:current-layer="svg12" />
  <g
     transform="matrix(1,0,0,1,0,0)"
     id="g11">
    <svg
       viewBox="0 0 320 360"
       data-background-color="#f9f9f9"
       preserveAspectRatio="xMidYMid meet"
       height="1687"
       width="1500"
       version="1.1"
       id="svg11">
      <g
         id="tight-bounds"
         transform="matrix(1,0,0,1,0,0)">
        <svg
           viewBox="0 0 320 360"
           height="360"
           width="320"
           version="1.1"
           id="svg10">
          <g
             id="g10">
            <svg
               viewBox="0 0 320 360"
               height="360"
               width="320"
               version="1.1"
               id="svg9">
              <g
                 id="g2">
                <path
                   d="m 165.217,303.356 c -1.404,-1.755 -2.809,-0.702 -2.808,-1.755 -8.426,2.106 -24.223,-3.511 -30.894,-2.809 1.404,-2.106 -2.106,-1.755 -2.106,-3.159 -1.404,2.106 -2.809,0 -4.915,0.702 -2.106,-5.266 -10.532,-1.404 -11.585,-8.075 -4.915,0 -6.67,-2.809 -11.586,-5.617 0.351,-0.351 0.702,-0.351 1.054,-0.702 -2.457,-0.351 -2.457,-1.755 -4.564,-1.755 l 0.702,-1.405 c -3.862,-0.702 -5.266,-6.67 -10.883,-8.776 -1.755,-0.351 -5.617,-6.319 -7.723,-7.724 -1.053,-0.702 -2.809,-0.702 -0.352,-1.053 -0.351,-0.351 -0.351,-1.053 0,-1.404 -2.457,-0.702 -2.809,-2.809 -5.968,-3.862 -0.351,-1.053 0.702,-1.755 0,-2.457 -0.702,-0.351 -1.755,0.351 -2.457,0 -0.351,6.319 6.67,7.021 8.777,12.287 -0.702,-0.702 -1.755,-2.809 -2.458,-1.404 -0.351,1.053 2.809,4.915 2.809,2.808 -1.053,0.702 -1.404,-1.053 -0.703,-1.404 1.053,1.755 3.16,1.404 3.16,2.809 -1.053,1.053 -2.457,-1.053 -2.106,0.702 3.16,1.755 2.809,3.511 4.563,5.968 -1.404,-1.755 -1.755,1.404 -3.159,0 -0.351,-5.266 -6.319,-4.213 -6.319,-9.479 -0.702,-1.755 -1.404,-0.351 -2.458,-1.053 1.404,-1.404 -4.213,-6.319 -4.213,-4.564 -1.755,-2.106 -0.702,-2.809 -1.053,-4.213 -1.404,-0.351 -0.351,1.404 -1.404,0.351 1.404,-2.457 -1.755,-5.617 -3.862,-8.074 l 1.405,-0.702 c -2.457,-1.404 -2.809,-4.213 -4.564,-7.373 -2.106,3.16 4.213,10.181 3.159,11.585 0,0.351 2.457,3.16 3.16,4.564 2.809,4.915 4.915,10.883 8.777,13.692 -0.702,-0.351 -0.351,-2.457 0.702,-1.404 0,1.053 -0.702,2.106 -0.702,3.159 2.106,2.106 3.862,3.862 5.968,5.968 -4.564,-2.809 -9.128,-5.617 -12.288,-9.83 1.755,-0.351 3.511,2.809 4.915,2.458 -3.511,-2.809 -2.457,-3.862 -3.861,-7.372 -1.404,-1.053 0.351,1.404 -1.054,1.755 -4.564,-4.213 -8.075,-6.67 -10.181,-10.532 0.351,-0.351 0.702,-0.702 0.703,-1.404 -0.351,-0.351 -0.351,-0.351 -0.703,-0.702 2.106,2.106 2.809,3.862 5.266,4.212 -1.053,-1.053 0,-1.404 -1.404,-2.457 -0.702,-1.404 -1.755,0.702 -2.457,-0.351 0.702,-1.053 0,-2.457 0,-3.511 -0.702,0 -1.404,0 -1.756,-1.053 -0.702,-0.351 -1.053,0 -1.404,0.702 -0.351,-0.351 -0.351,-1.053 -0.702,-1.404 v -0.351 c -0.351,-0.351 -0.702,-1.053 -1.053,-1.405 -2.809,-7.372 -4.564,-17.202 -8.426,-23.521 1.053,-4.213 -0.702,-12.638 -1.755,-14.745 1.053,-1.755 0.351,-9.83 -0.351,-11.234 -1.755,0.702 0.351,4.564 -1.404,5.617 -1.755,-7.723 1.053,-16.5 0.351,-23.521 0.702,0 1.404,0 1.404,-0.351 -1.053,-1.053 0.702,-3.16 0.351,-5.617 1.404,-3.16 -3.16,4.564 -3.16,7.723 -0.351,0.702 -1.755,0 -1.404,1.756 0,2.457 0.702,7.372 -0.702,10.883 -0.702,0 -0.702,-0.702 -1.404,-0.351 -0.351,1.755 -0.702,3.862 -1.053,5.617 -0.351,-0.702 -0.702,-1.755 -0.703,-2.107 -1.755,-8.777 0,-18.958 -0.702,-26.33 1.404,0 1.404,-2.106 2.458,-2.808 -0.351,2.809 -1.053,6.319 0.702,7.021 1.404,-13.692 4.213,-28.787 10.532,-43.532 C 53.93,120.1 60.6,109.217 68.674,100.44 c 0.702,1.053 -0.351,3.511 0,4.564 7.021,-7.372 11.585,-16.149 19.309,-21.064 0.351,1.755 -3.16,3.16 -3.16,4.564 3.16,-3.16 4.213,-2.106 7.724,-3.159 1.053,-1.404 -1.404,0 -1.756,-1.405 2.106,-1.404 3.511,-3.16 4.915,-4.212 0,0.351 -0.351,0.351 -0.351,0.702 3.862,-1.053 4.213,-3.16 7.022,-3.862 -0.351,-0.351 -1.053,-0.702 -2.107,-0.351 0.702,-0.351 1.755,-1.053 2.809,-1.404 -0.351,0 -0.351,0.351 -0.702,0.351 2.106,-1.053 0.351,0.351 0.351,1.053 0.351,0 0.702,-0.351 0.702,-0.351 -2.106,1.404 -3.511,2.106 -4.213,4.564 1.053,-0.702 1.404,0 2.809,-1.054 1.404,-0.702 -0.351,-1.755 0.702,-2.457 1.053,0.702 2.457,0.351 3.51,0.351 0,-0.702 0.351,-1.404 1.054,-1.755 0.351,-0.702 0,-1.053 -0.352,-1.053 0.351,-0.351 0.702,-0.351 1.405,-0.703 0,0 0.351,0 0.351,0.351 5.968,-2.809 12.638,-5.266 18.957,-7.372 3.862,-0.351 8.777,-0.351 10.883,-2.808 -0.702,0 -1.404,0.351 -1.755,0 0.351,0 1.053,-0.351 1.404,-0.351 0.702,0.702 1.755,0 0.702,1.404 0.351,0 0.351,0 0.703,-0.351 0,0.351 0,0.351 0.351,0.702 0.351,0 0.702,-0.351 1.053,-1.053 0.351,0 0.702,0 1.053,-0.351 l -0.351,0.351 c 2.809,-0.702 5.266,-0.351 9.128,-1.054 0,-0.351 0,-0.702 0,-1.053 0.702,0 1.053,-0.351 1.755,-0.351 v 0.351 c 1.404,-0.702 2.809,0.702 2.808,0 0.351,0 0.351,0 0.703,0 0,0.702 -0.351,1.053 -0.351,1.405 1.755,0 2.809,0 3.51,-1.054 -0.351,-0.351 -0.702,-0.351 -1.053,-0.351 0.702,0 1.404,-0.351 2.106,-0.702 1.053,0.351 1.404,0.702 1.405,2.107 1.755,-3.16 7.372,0.702 9.829,0 1.053,0 0.702,-1.404 1.405,-2.107 0.351,0 0.702,0 1.053,0 1.755,1.404 4.213,2.809 7.372,3.16 -2.809,-0.702 0.351,-1.053 0.702,-1.405 -0.702,0 -0.702,-0.351 -0.702,-0.702 1.053,0 2.106,0.351 3.16,0.351 0,0.702 0.351,1.053 1.053,1.054 0.702,0 0.702,-0.351 0.702,-1.054 1.053,0 1.755,0 2.809,0.351 -0.351,1.404 1.755,1.755 2.457,2.809 -2.809,-0.702 -5.968,-1.755 -7.021,0 11.234,2.457 23.521,5.968 35.457,11.936 0,0 0,0 0,0.351 h 0.352 c 2.106,1.053 4.213,2.106 6.319,3.16 1.404,0.702 2.457,1.404 3.861,2.457 0,0.351 0,0.702 0.703,0.702 h 0.351 c 1.404,1.053 2.809,1.755 4.212,2.809 1.404,2.106 2.809,4.915 5.266,4.213 5.266,8.075 10.883,11.234 15.447,19.659 0.351,-1.404 1.404,3.16 3.16,3.511 -2.809,-0.351 1.755,1.755 -1.053,1.404 2.457,2.457 3.16,3.511 3.51,6.319 -0.702,-1.404 -1.053,-1.755 -1.404,-0.351 -0.351,2.106 2.457,-0.351 3.511,1.756 -2.106,0 -1.404,1.404 -1.054,3.159 1.053,-1.053 0.702,-2.106 1.756,-1.755 1.404,1.404 -0.702,1.755 -0.351,2.809 1.053,-1.404 1.404,-0.702 2.808,0 -1.755,0.351 1.053,2.809 -1.053,1.755 1.404,1.755 1.755,2.809 1.053,4.564 -1.404,-2.106 -0.351,-3.511 -2.457,-3.16 4.213,3.511 2.106,11.585 7.021,12.287 -3.16,0.702 0,2.106 -1.755,2.458 2.106,0.702 1.053,3.511 3.51,4.213 -0.351,1.755 -1.053,2.809 -1.404,4.563 1.053,1.404 1.404,4.213 3.16,4.564 -1.053,1.053 -0.351,3.862 -1.404,4.915 1.404,-0.702 2.106,-0.702 3.159,0.702 -1.755,1.404 -0.351,2.809 -1.404,3.16 3.16,8.075 -0.702,24.575 1.053,30.894 -2.106,-1.053 -1.404,2.457 -2.808,2.457 2.457,1.053 0.351,2.809 1.404,4.564 -4.915,2.809 0,10.532 -6.67,12.287 0.702,4.915 -2.106,7.021 -4.213,12.288 -0.351,-0.351 -0.351,-0.702 -0.702,-1.054 -0.351,2.457 -1.755,2.809 -1.054,4.915 l -1.404,-0.702 c 0,3.862 -5.968,5.968 -7.372,11.936 -0.351,1.755 -5.617,6.319 -7.022,8.777 -0.702,1.053 -0.351,2.809 -1.053,0.351 -0.351,0.351 -1.053,0.351 -1.404,0.351 -0.351,2.457 -2.457,3.16 -3.16,6.319 -0.702,0.351 -1.755,-0.702 -2.457,0.351 0,0.702 0.702,1.755 0.351,2.458 6.319,-0.351 6.319,-7.723 11.234,-10.181 -0.351,1.053 -2.457,2.106 -1.053,2.808 1.053,0 4.213,-3.511 2.457,-3.159 1.053,0.702 -1.053,1.404 -1.404,1.053 1.755,-1.404 1.053,-3.16 2.458,-3.511 1.053,0.702 -1.053,2.457 1.053,2.107 1.404,-3.16 3.16,-3.511 5.266,-5.266 -1.404,1.404 1.755,1.755 0.351,3.159 -5.266,1.053 -3.511,7.021 -8.777,7.724 -1.404,1.053 -0.351,1.404 -0.702,2.457 -1.755,-1.053 -5.617,4.915 -4.213,4.564 -1.755,1.755 -2.809,1.053 -4.212,1.404 -0.351,1.404 1.404,0.351 0.702,1.405 -2.457,-1.053 -5.617,2.457 -7.724,4.915 l -1.053,-1.054 c -1.053,2.809 -3.862,3.16 -7.021,5.266 3.511,1.755 9.479,-5.617 11.234,-4.564 0.351,0 3.16,-2.809 4.213,-3.861 4.564,-3.511 10.181,-6.319 12.287,-10.181 -0.351,0.702 -2.457,0.702 -1.404,-0.351 1.053,-0.351 2.106,0.351 3.159,0.351 5.617,-7.723 12.638,-14.043 17.905,-23.17 0.351,-0.351 0.702,-1.053 1.053,-1.756 -0.702,2.106 -1.755,3.862 -2.458,5.968 -5.617,3.862 -7.723,15.096 -14.393,16.851 0.351,3.862 -3.16,4.915 -4.915,9.479 -1.053,1.404 -1.755,-1.053 -2.809,0.702 1.053,4.915 -8.777,4.564 -8.425,9.128 -0.702,0.351 -1.755,0.702 -2.458,1.404 h -0.351 c -0.351,0.351 -0.351,0.351 -0.702,0.702 -1.755,1.053 -3.16,2.106 -4.564,3.16 -4.915,2.809 -11.585,4.915 -16.851,7.723 v -0.351 c -1.404,0.702 -3.16,0.351 -2.809,1.756 -1.053,0.702 -2.106,1.404 -3.159,2.106 -0.351,0 -0.351,0 -0.702,0 0,0 -0.351,-0.351 -0.702,-0.351 -0.702,0 -0.702,0 -1.054,0.351 -4.564,0.351 -10.532,2.457 -12.287,3.862 -1.755,-1.053 -9.83,0.702 -11.234,1.404 0.702,1.053 2.809,0 4.564,0 -1.053,0.351 -2.106,0.702 -2.458,1.404 -0.351,0 -0.351,0 -0.702,0 -0.351,-1.053 -1.404,0 -1.755,-0.351 h 0.351 c -0.351,-1.404 -1.404,-2.106 -3.16,-1.755 0,0.702 0,1.053 -0.351,1.755 0.702,0 2.809,-1.053 2.809,0 -0.351,0 -0.351,0.351 0,0.351 -0.702,0.702 -1.755,0.702 -2.458,1.054 -1.404,0 -3.16,0 -4.563,0 -0.351,-0.351 -0.702,-0.351 -1.405,-0.703 -0.351,0.351 -1.053,0.351 -1.404,0.703 -2.106,0 -4.564,0.351 -6.319,0.702 0,-0.702 0,-1.404 -0.702,-1.405 -1.053,1.404 -3.16,-0.351 -5.617,0.352 -2.457,-0.702 1.404,1.053 4.915,1.755 -0.351,0.351 -0.702,0.702 -1.756,1.053 m -49.149,4.915 c -4.915,-4.564 -15.096,-6.67 -16.851,-10.181 -2.809,-0.351 -7.021,-5.617 -10.532,-6.319 1.755,0 0.351,-1.053 0,-1.755 -0.702,0.702 -1.404,1.053 -2.106,1.053 0,-2.809 -2.809,-4.564 -5.266,-6.319 1.755,1.053 3.16,1.755 5.266,2.106 0,-0.702 0,-1.404 0.702,-1.404 2.457,2.457 5.266,4.915 8.425,7.372 4.213,3.862 25.979,13.692 29.841,15.447 0,0 -0.702,1.404 -0.351,1.404 1.755,1.053 3.16,-1.053 3.511,1.404 -5.617,0.702 -7.723,-3.16 -12.639,-2.808 m 161.841,-81.447 v 0.351 0 c -0.351,0 0,-0.351 0,-0.351 M 136.079,64.281 c -0.351,0.351 -0.702,0.351 -0.702,0.351 0,-0.351 0.351,-0.351 0.702,-0.351 m -6.67,1.755 c 0,0.351 0,0.351 0,0 0,0.351 0,0.351 0,0 0,0.351 0,0 0,0 m -23.171,7.372 v 0 c 0.351,-0.351 0.351,-0.351 0.703,-0.351 -0.351,0 -0.702,0.351 -0.703,0.351 m 56.171,-11.585 c -0.702,0 -1.053,0 -1.404,-0.351 0.351,0 0.702,0 1.053,0 h 0.351 c 0,0 0,0 0,0.351 m 6.319,0.702 c -0.351,-0.351 -1.404,-0.702 -2.457,-0.702 0,-0.351 0.351,-0.702 0.351,-0.702 0.351,0 0.702,0 1.053,0 0,0 0.351,0 0.351,0.351 0,0 0,0 0,-0.351 0.351,0 0.351,0 0.702,0 0.351,0.702 0.702,1.053 0,1.404 m 11.585,1.054 c -1.755,0.351 -2.809,-0.351 -4.564,-1.405 1.053,0 2.457,0.351 3.511,0.702 0.351,0 0.702,0.351 1.053,0.703 m 124.979,49.851 c -0.702,0.351 -1.053,0.351 -1.755,-1.053 C 297.92,100.441 287.739,83.239 272.994,68.845 258.6,54.1 239.292,42.164 221.739,35.844 c 1.053,0.351 2.457,1.053 1.755,1.756 -15.447,-5.968 -30.192,-9.479 -44.234,-10.883 -37.915,-5.968 -77.585,2.106 -108.128,21.766 0.351,0.702 0.351,1.053 -0.702,1.755 -11.234,7.021 -27.032,19.309 -39.671,35.458 -12.638,16.149 -22.468,36.511 -26.681,54.766 0.351,-1.053 0.702,-2.809 1.405,-2.107 -9.128,36.16 -6.67,67.053 5.968,93.735 0.702,-0.702 -1.755,-4.213 0.351,-3.862 1.404,3.862 3.16,8.075 5.266,11.936 2.457,5.617 5.266,12.989 9.128,14.745 -9.83,-19.309 -16.5,-41.426 -17.203,-61.085 1.404,2.809 1.053,8.777 3.16,11.234 0.702,-13.34 -2.457,-31.245 2.106,-43.883 -1.053,6.67 -1.755,15.798 -1.053,24.925 0,6.67 3.16,25.277 5.266,27.032 -0.351,-0.351 -0.351,-2.106 0,-2.106 1.053,2.106 -1.404,3.16 0.351,3.511 0,-0.702 0.351,-0.702 0.702,-0.703 3.511,7.723 8.075,19.66 11.585,25.628 4.213,7.723 9.83,14.745 16.149,21.064 0,0.351 0.351,0.351 0.352,0.702 0.702,1.755 3.16,3.862 3.861,5.266 0.351,0.702 -0.351,1.755 0,2.458 5.266,9.83 12.989,19.66 22.468,27.383 5.968,7.021 15.447,14.394 27.032,20.713 11.234,5.968 24.223,10.883 36.16,13.691 8.426,2.106 18.606,2.457 24.926,3.862 8.426,1.755 23.17,-0.702 30.542,-2.107 44.234,-6.67 88.117,-36.862 110.235,-80.393 22.819,-43.883 22.117,-97.596 2.457,-138.671"
                   fill="#030303"
                   fill-rule="nonzero"
                   stroke="none"
                   stroke-width="1"
                   stroke-linecap="butt"
                   stroke-linejoin="miter"
                   stroke-miterlimit="10"
                   stroke-dasharray="none"
                   stroke-dashoffset="0"
                   font-family="none"
                   font-weight="none"
                   font-size="none"
                   text-anchor="none"
                   style="display:inline;mix-blend-mode:normal"
                   data-fill-palette-color="tertiary"
                   id="path1" />
              </g>
            </svg>
          </g>
          <defs
             id="defs10" />
        </svg>
        <rect
           width="320"
           height="360"
           fill="none"
           stroke="none"
           visibility="hidden"
           id="rect10" />
      </g>
    </svg>
  </g>
</svg>
